# xmcd
#
# Track frame offsets:
# 150
# 26901
# 45984
# 70793
# 108028
# 142558
# 180225
# 208634
# 241704
# 261364
# 289887
#
# Disc length: 4298 seconds
#
# Revision: 0
# Processed by: cddbd v1.5.2PL0 Copyright (c) Steve Scherf et al.
# Submitted via: Audion 3.0.2 (http://www.panic.com/audion/)
#
DISCID=8c10c80b
DTITLE=VOL II - Te ReCycle Session
DYEAR=1900
DGENRE=
TTITLE0=Save our Children Remix
TTITLE1=Boule D`or
TTITLE2=Synthetique coquillage
TTITLE3=The End of the Beginning
TTITLE4=Miles from ome
TTITLE5=Konklave
TTITLE6=Honey, Aphrodite and Mickey Finn Remix
TTITLE7=Bodyswerve
TTITLE8=Shakeup, Jadell Rmix
TTITLE9=Night over Manaus
TTITLE10=Matusalem
EXTD=
EXTT0=
EXTT1=
EXTT2=
EXTT3=
EXTT4=
EXTT5=
EXTT6=
EXTT7=
EXTT8=
EXTT9=
EXTT10=
PLAYORDER=
